<svg width="27" height="34" viewBox="0 0 27 34" fill="none" xmlns="http://www.w3.org/2000/svg">
<path id="Vector" fill-rule="evenodd" clip-rule="evenodd" d="M20.9916 2.57504C19.5004 1.70226 18.257 0.974466 17.1932 0.531264C16.0704 0.0634634 14.9517 -0.17472 13.7593 0.149153C12.567 0.473026 11.7157 1.24627 10.974 2.2205C10.2714 3.1435 9.55347 4.40402 8.69258 5.91567L1.26512 18.9563C0.765762 19.8314 0.357855 20.5462 0.15168 21.3138C0.122226 21.4235 0.0968901 21.5342 0.075992 21.6467C-0.0911897 22.5461 0.0452352 23.4491 0.217772 24.5912L0.264264 24.8999C0.582751 27.0201 0.845268 28.7676 1.24121 30.0929C1.6553 31.4789 2.29186 32.6785 3.54383 33.4112C4.79579 34.1439 6.13897 34.1029 7.5301 33.7735C8.86025 33.4585 10.4845 32.8151 12.4551 32.0346L12.742 31.9211C13.804 31.5015 14.6437 31.1698 15.3286 30.5733C16.0134 29.9768 16.4634 29.1852 17.0325 28.1842L24.4597 15.1435C25.3207 13.6319 26.0387 12.3714 26.4759 11.293C26.9374 10.1548 27.1724 9.0209 26.8529 7.81219C26.5334 6.60348 25.7706 5.74054 24.8095 4.98873C23.899 4.27646 22.6555 3.54875 21.1642 2.67606L20.9916 2.57504ZM21.2017 15.0357L10.4136 8.72199L3.85276 20.2413C3.138 21.4963 2.96604 21.8361 2.90097 22.1862C2.8359 22.5363 2.87406 22.9163 3.0893 24.3488C3.42899 26.6097 3.66362 28.1475 3.99248 29.2482C4.31015 30.3115 4.63775 30.6866 4.98117 30.8876C5.32459 31.0886 5.80886 31.1886 6.87608 30.9359C7.98088 30.6742 9.41202 30.1113 11.5134 29.279C12.8449 28.7517 13.1886 28.5952 13.4551 28.3631C13.7217 28.1309 13.9261 27.81 14.6408 26.5551L21.2017 15.0357ZM22.636 12.5103C23.1746 11.5482 23.5631 10.8117 23.817 10.1853C24.1563 9.34865 24.1675 8.91223 24.0761 8.5664C23.9847 8.22057 23.7597 7.84833 23.0532 7.29571C22.3138 6.71726 21.2405 6.08557 19.6406 5.14918C18.0406 4.2128 16.9643 3.58647 16.1004 3.22654C15.2751 2.88268 14.8445 2.87123 14.5034 2.9639C14.1622 3.05656 13.795 3.28469 13.2498 4.00079C12.8417 4.53695 12.4067 5.2462 11.854 6.20012L22.636 12.5103Z" fill="#8C8C8C"/>
</svg>
